<svg id="Capa_1" enable-background="new 0 0 512 512" height="512" viewBox="0 0 512 512" width="512" xmlns="http://www.w3.org/2000/svg"><g><g><path d="m297.641 152.064c-22.166-6.313-43.457-12.692-64.547-17.115l-21.082 153.664 21.082 135.978c18.716 3.57 37.524 8.532 56.318 13.885 4.46 1.27 8.93 2.542 13.409 3.801l20.516-147.043-20.517-141.696c-1.724-.49-3.45-.981-5.179-1.474z" fill="#eeeef0"/><path d="m372.547 170.428c-22.877-3.75-46.073-10.166-69.727-16.889v288.74c23.008 6.469 46.262 12.576 69.727 16.081l29.739-152.411z" fill="#dddde1"/></g><path d="m489.556 153.459c-38.529 21.948-77.289 23.479-117.009 16.969v287.932c12.805 1.913 25.672 3.051 38.597 3.051 30.801-.001 61.93-6.469 93.28-24.328l7.576-4.316v-292.093z" fill="#ff864c"/><path d="m93.64 153.459v287.48c44.758-25.496 91.811-25.433 139.453-16.346v-289.643c-45.198-9.478-89.473-9.962-139.453 18.509z" fill="#a4ea2e"/><path d="m25.01 91.813h70.062v420.187h-70.062z" fill="#985626"/><path d="m60.041 120.01c-33.106 0-60.041-26.918-60.041-60.005s26.935-60.005 60.041-60.005 60.041 26.918 60.041 60.005-26.934 60.005-60.041 60.005z" fill="#7b441d"/></g></svg>