<?xml version="1.0"?>
<svg xmlns="http://www.w3.org/2000/svg" xmlns:xlink="http://www.w3.org/1999/xlink" xmlns:svgjs="http://svgjs.com/svgjs" version="1.1" width="512" height="512" x="0" y="0" viewBox="0 0 496 496" style="enable-background:new 0 0 512 512" xml:space="preserve" class=""><g><g xmlns="http://www.w3.org/2000/svg"><path d="m496 17.26v48c0 8.84-7.16 16-16 16h-464c-8.84 0-16-7.16-16-16v-48c0-8.84 7.16-16 16-16h464c8.84 0 16 7.16 16 16z" fill="#d4d4d7" data-original="#edebfd" style="" class=""/><path d="m480 1.26h-40c8.84 0 16 7.16 16 16v48c0 8.84-7.16 16-16 16h40c8.84 0 16-7.16 16-16v-48c0-8.84-7.16-16-16-16z" fill="#bdbdc1" data-original="#d2d2fc" style="" class=""/><path d="m464 81.26c-15.413 22.257-112.313 162.228-138.31 199.78-3.71 5.35-5.69 11.71-5.69 18.22v187.475c0 5.291-5.044 9.124-10.141 7.708l-128-35.556c-3.463-.962-5.859-4.114-5.859-7.708v-151.919c0-6.51-1.98-12.87-5.69-18.22-148.826-214.975-123.023-177.705-138.31-199.78z" fill="#02bcff" data-original="#7acef9" style="" class=""/><path d="m32 81.26 11.08 16h316.769c25.813 0 41.003 28.991 26.31 50.215l-92.469 133.565c-3.71 5.35-5.69 11.71-5.69 18.22v189.111l21.859 6.072c5.098 1.416 10.141-2.418 10.141-7.708v-187.475c0-6.51 1.98-12.87 5.69-18.22l138.31-199.78z" fill="#28a6ff" data-original="#6cb9e7" style="" class=""/></g></g></svg>
