<svg height="512" viewBox="0 0 58 52" width="512" xmlns="http://www.w3.org/2000/svg"><g id="Page-1" fill="none" fill-rule="evenodd"><g id="016---Book" fill-rule="nonzero"><rect id="Rectangle-path" fill="#a56a43" height="46" rx="4" width="58" y="6"/><path id="Shape" d="m51 0h-8l-5.17.01-2.83.01c-2.0122576-.01814078-3.8957948.9876681-5 2.67-.6521686.98071126-1.0000625 2.13224007-1 3.31.0047127-1.17844222-.3435813-2.33129534-1-3.31-1.1079845-1.68073342-2.9869198-2.69160058-5-2.69h-16c-1.65685425 0-3 1.34314575-3 3v42c0 1.6568542 1.34314575 3 3 3h44c1.6568542 0 3-1.3431458 3-3v-42c0-1.65685425-1.3431458-3-3-3z" fill="#ecf0f1"/><path id="Shape" d="m40.88 15.06-3.33 4.01 1.58 2.1c.8260858 1.1154557.7848202 2.6505364-.1 3.72l-3.19 3.82 2.73 2.18c1.179568.936232 1.4756042 2.6051899.69 3.89l-1.98 3.3 1.95 3.92h-2.23l-1.75-3.51c-.1557161-.3038752-.1443859-.6664405.03-.96l2.27-3.78c.2609099-.4295608.1624568-.9860349-.23-1.3l-3.52-2.81c-.2104537-.1668799-.3449298-.4114037-.3731448-.6785058-.028215-.2671022.0522032-.5343261.2231448-.7414942l3.84-4.61c.2965992-.3550687.3130987-.866554.04-1.24l-2.06-2.74c-.2730987-.373446-.2565992-.8849313.04-1.24l3.84-4.61c.1709416-.2071681.2513598-.474392.2231448-.7414942-.028215-.2671021-.1626911-.5116259-.3731448-.6785058l-3.42-2.74c-.4289082-.34345392-.5003569-.96863007-.16-1.4l2.82-3.52c.3222221-.39701356.2874877-.97447275-.08-1.33l-3.36-3.35 2.83-.01 1.94 1.94c1.0962164 1.07474118 1.1958037 2.80669266.23 4l-2.19 2.73 2.64 2.12c.6331133.5055091 1.036653 1.2441308 1.12 2.05.0784184.7996743-.1705203 1.5969997-.69 2.21z" fill="#d1d4d1"/><path id="Shape" d="m29 48h-22c-1.65685425 0-3-1.3431458-3-3v-6c0 1.6568542 1.34314575 3 3 3h16c3.3116533.0049563 5.9950437 2.6883467 6 6z" fill="#bdc3c7"/><path id="Shape" d="m54 39v6c0 1.6568542-1.3431458 3-3 3h-22c.0049563-3.3116533 2.6883467-5.9950437 6-6h16c1.6568542 0 3-1.3431458 3-3z" fill="#bdc3c7"/><g fill="#547580"><path id="Shape" d="m23 7h-14c-.55228475 0-1-.44771525-1-1s.44771525-1 1-1h14c.5522847 0 1 .44771525 1 1s-.4477153 1-1 1z"/><path id="Shape" d="m23 12h-14c-.55228475 0-1-.4477153-1-1s.44771525-1 1-1h14c.5522847 0 1 .4477153 1 1s-.4477153 1-1 1z"/><path id="Shape" d="m23 17h-14c-.55228475 0-1-.4477153-1-1s.44771525-1 1-1h14c.5522847 0 1 .4477153 1 1s-.4477153 1-1 1z"/><path id="Shape" d="m13 22h-4c-.55228475 0-1-.4477153-1-1s.44771525-1 1-1h4c.5522847 0 1 .4477153 1 1s-.4477153 1-1 1z"/><path id="Shape" d="m23 22h-6c-.5522847 0-1-.4477153-1-1s.4477153-1 1-1h6c.5522847 0 1 .4477153 1 1s-.4477153 1-1 1z"/><path id="Shape" d="m23 27h-14c-.55228475 0-1-.4477153-1-1s.44771525-1 1-1h14c.5522847 0 1 .4477153 1 1s-.4477153 1-1 1z"/><path id="Shape" d="m23 32h-14c-.55228475 0-1-.4477153-1-1s.44771525-1 1-1h14c.5522847 0 1 .4477153 1 1s-.4477153 1-1 1z"/><path id="Shape" d="m14 37h-5c-.55228475 0-1-.4477153-1-1s.44771525-1 1-1h5c.5522847 0 1 .4477153 1 1s-.4477153 1-1 1z"/><path id="Shape" d="m23 37h-5c-.5522847 0-1-.4477153-1-1s.4477153-1 1-1h5c.5522847 0 1 .4477153 1 1s-.4477153 1-1 1z"/><path id="Shape" d="m49 7h-13c-.5522847 0-1-.44771525-1-1s.4477153-1 1-1h13c.5522847 0 1 .44771525 1 1s-.4477153 1-1 1z"/><path id="Shape" d="m49 12h-14c-.5522847 0-1-.4477153-1-1s.4477153-1 1-1h14c.5522847 0 1 .4477153 1 1s-.4477153 1-1 1z"/><path id="Shape" d="m49 17h-14c-.5522847 0-1-.4477153-1-1s.4477153-1 1-1h14c.5522847 0 1 .4477153 1 1s-.4477153 1-1 1z"/><path id="Shape" d="m49 22h-14c-.5522847 0-1-.4477153-1-1s.4477153-1 1-1h14c.5522847 0 1 .4477153 1 1s-.4477153 1-1 1z"/><path id="Shape" d="m49 27h-16c-.5522847 0-1-.4477153-1-1s.4477153-1 1-1h16c.5522847 0 1 .4477153 1 1s-.4477153 1-1 1z"/><path id="Shape" d="m49 32h-16c-.5522847 0-1-.4477153-1-1s.4477153-1 1-1h16c.5522847 0 1 .4477153 1 1s-.4477153 1-1 1z"/><path id="Shape" d="m40 37h-3.8c-.5522847 0-1-.4477153-1-1s.4477153-1 1-1h3.8c.5522847 0 1 .4477153 1 1s-.4477153 1-1 1z"/><path id="Shape" d="m49 37h-5c-.5522847 0-1-.4477153-1-1s.4477153-1 1-1h5c.5522847 0 1 .4477153 1 1s-.4477153 1-1 1z"/></g><path id="Shape" d="m35.51 18.39c-.2965992.3550687-.3130987.866554-.04 1.24l2.06 2.74c.2730987.373446.2565992.8849313-.04 1.24l-3.84 4.61c-.1709416.2071681-.2513598.474392-.2231448.7414942.028215.2671021.1626911.5116259.3731448.6785058l3.52 2.81c.3924568.3139651.4909099.8704392.23 1.3l-2.27 3.78c-.1743859.2935595-.1857161.6561248-.03.96l1.75 3.51h-2c-1.5919979-.0048139-3.1193899.6291979-4.24 1.76-.285843.281947-.5406325.5937289-.76.93-.6564187.9787047-1.0047127 2.1315578-1.0000472 3.31l.0000472-42c-.0000625-1.17775993.3478314-2.32928874 1-3.31 1.1042052-1.6823319 2.9877424-2.68814078 5-2.67l3.36 3.35c.3674877.35552725.4022221.93298644.08 1.33l-2.82 3.52c-.3403569.43136993-.2689082 1.05654608.16 1.4l3.42 2.74c.2104537.1668799.3449298.4114037.3731448.6785058.028215.2671022-.0522032.5343261-.2231448.7414942z" fill="#ecf0f1"/><path id="Shape" d="m35.51 18.39c-.2965992.3550687-.3130987.866554-.04 1.24l2.06 2.74c.2730987.373446.2565992.8849313-.04 1.24l-3.84 4.61c-.1709416.2071681-.2513598.474392-.2231448.7414942.028215.2671021.1626911.5116259.3731448.6785058l3.52 2.81c.3924568.3139651.4909099.8704392.23 1.3l-2.27 3.78c-.1743859.2935595-.1857161.6561248-.03.96l1.75 3.51h-2c-1.5919979-.0048139-3.1193899.6291979-4.24 1.76-.285843.281947-.5406325.5937289-.76.93-.6564187.9787047-1.0047127 2.1315578-1.0000472 3.31l.0000472-42c-.0000625-1.17775993.3478314-2.32928874 1-3.31 1.1042052-1.6823319 2.9877424-2.68814078 5-2.67l3.36 3.35c.3674877.35552725.4022221.93298644.08 1.33l-2.82 3.52c-.3403569.43136993-.2689082 1.05654608.16 1.4l3.42 2.74c.2104537.1668799.3449298.4114037.3731448.6785058.028215.2671022-.0522032.5343261-.2231448.7414942z" fill="#ecf0f1"/><path id="Shape" d="m30 2.69v42c-.6564187.9787047-1.0047127 2.1315578-1 3.31.0047127-1.1784422-.3435813-2.3312953-1-3.31v-42c.6564187.97870466 1.0047127 2.13155778 1 3.31-.0000625-1.17775993.3478314-2.32928874 1-3.31z" fill="#d1d4d1"/></g></g></svg>