<svg id="Layer_1" height="512" viewBox="0 0 512 512" width="512" xmlns="http://www.w3.org/2000/svg" data-name="Layer 1"><g id="_Group_2" data-name=" Group 2"><g id="_Path_2" data-name=" Path 2"><path d="m169.214 323.507a6 6 0 0 1 -5.542-3.7l-67.345-162-67.345 162a6 6 0 0 1 -11.082-4.607l72.886-175.328a6 6 0 0 1 11.081 0l72.885 175.328a6 6 0 0 1 -5.538 8.3z" fill="#6d7486"/></g></g><g id="_Group_2-2" data-name=" Group 2"><g id="_Path_2-2" data-name=" Path 2"><path d="m488.561 323.507a6 6 0 0 1 -5.543-3.7l-67.345-162-67.345 162a6 6 0 0 1 -11.08-4.606l72.885-175.331a6 6 0 0 1 11.081 0l72.886 175.33a6 6 0 0 1 -5.538 8.3z" fill="#6d7486"/></g></g><path d="m335.34 442h-158.68a28.859 28.859 0 0 0 -28.86 28.86v15.99h216.4v-15.99a28.859 28.859 0 0 0 -28.86-28.86z" fill="#575960"/><path d="m17.73 315.1a67.992 67.992 0 0 0 3.18 20.59h150.83a67.992 67.992 0 0 0 3.18-20.59z" fill="#ef96a9"/><path d="m20.91 335.69h150.83c-9.58 30.22-39.72 52.28-75.41 52.28s-65.83-22.06-75.42-52.28z" fill="#e77187"/><path d="m340.26 335.69h150.83c-9.59 30.22-39.72 52.28-75.42 52.28s-65.83-22.06-75.41-52.28z" fill="#e77187"/><path d="m337.08 315.1a67.992 67.992 0 0 0 3.18 20.59h150.83a67.992 67.992 0 0 0 3.18-20.59z" fill="#ef96a9"/><path d="m244.2 384.18a83.193 83.193 0 0 1 11.8-.84 81.737 81.737 0 0 1 11.8.85c32.56 4.69 57.74 28.5 59.95 57.81h-143.5v-.03c2.23-29.29 27.4-53.09 59.95-57.79z" fill="#7d8696"/><path d="m206.66 442h-30a28.859 28.859 0 0 0 -28.86 28.86v15.99h30v-15.99a28.859 28.859 0 0 1 28.86-28.86z" fill="#797c84"/><path d="m270.978 384.715q-1.576-.291-3.178-.525a81.737 81.737 0 0 0 -11.8-.85 83.193 83.193 0 0 0 -11.8.84c-32.55 4.7-57.72 28.5-59.95 57.79v.03h30v-.03c2.156-28.316 25.75-51.497 56.728-57.255z" fill="#959faf"/><path d="m457.65 141.31-.27-23.25-.08-.06h-129.486a14.817 14.817 0 0 0 -9.084-3.114h-50.93v-60.726h-23.6v60.726h-50.93a14.817 14.817 0 0 0 -9.084 3.114h-130.136l-.31.22-.61 23.37h131.054a14.818 14.818 0 0 0 9.086 3.116h50.93v239.474l23.6.01v-239.484h50.93a14.818 14.818 0 0 0 9.086-3.116h129.484z" fill="#c0c5d9"/><g fill="#7d8696"><path d="m468.62 110.46a19.04 19.04 0 1 1 -15.24 7.6 19.053 19.053 0 0 1 15.24-7.6z"/><path d="m267.8 59.16a19.048 19.048 0 1 1 7.26-14.95 18.908 18.908 0 0 1 -7.26 14.95z"/><path d="m58.13 141.59a19.08 19.08 0 1 1 4.31-12.07 19.033 19.033 0 0 1 -4.31 12.07z"/></g><g id="_Path_4" fill="#f4f8fc" data-name=" Path 4"><path d="m208.551 439.5a6 6 0 0 1 -5.568-8.231c3.691-9.223 10.621-17.146 20.04-22.913a6 6 0 1 1 6.266 10.234c-7.2 4.407-12.442 10.333-15.166 17.138a6 6 0 0 1 -5.572 3.772z"/><path d="m246.369 412.1a6 6 0 0 1 -.947-11.925 66.775 66.775 0 0 1 10.578-.839 6 6 0 0 1 0 12 54.693 54.693 0 0 0 -8.67.688 6.044 6.044 0 0 1 -.961.076z"/></g></svg>