<?xml version="1.0" encoding="utf-8"?>
<!-- Generator: Adobe Illustrator 24.0.0, SVG Export Plug-In . SVG Version: 6.00 Build 0)  -->
<svg version="1.1" xmlns="http://www.w3.org/2000/svg" xmlns:xlink="http://www.w3.org/1999/xlink" x="0px" y="0px"
	 viewBox="0 0 64 64" enable-background="new 0 0 64 64" xml:space="preserve">
<g id="Captions">
</g>
<g id="Icons">
	<g>
		<g>
			<path fill="#64C8F0" d="M28.664,16.792C25.76,18.2,24,21.238,24,24.465L24,32c0,1.105-0.895,2-2,2h-9c-0.552,0-1,0.448-1,1l0,0
				c0,0.552,0.448,1,1,1h9c2.209,0,4-1.791,4-4l0-7.743c0-2.87,1.909-5.487,4.709-6.113c0.752-0.168,1.481-0.182,2.171-0.077
				C33.473,18.158,34,17.68,34,17.08v0c0-0.492-0.357-0.917-0.844-0.991C31.762,15.876,30.254,16.02,28.664,16.792z"/>
		</g>
		<g>
			<path fill="#64C8F0" d="M36,19.121L36,19.121c0,0.268,0.115,0.518,0.302,0.71C37.351,20.911,38,22.379,38,24l0,15.781
				c0,3.075-2.221,5.816-5.275,6.176c-2.703,0.319-5.1-1.174-6.153-3.418C26.414,42.203,26.063,42,25.692,42h-0.013
				c-0.732,0-1.211,0.767-0.896,1.428c1.421,2.986,4.632,4.96,8.242,4.508C37.064,47.431,40,43.819,40,39.748L40,24
				c0-2.162-0.864-4.122-2.263-5.562C37.103,17.786,36,18.212,36,19.121z"/>
		</g>
		<g>
			<path fill="#64C8F0" d="M17,30h-4c-0.552,0-1,0.448-1,1v0c0,0.552,0.448,1,1,1h4c0.552,0,1-0.448,1-1v0
				C18,30.448,17.552,30,17,30z"/>
		</g>
		<g>
			<path fill="#64C8F0" d="M42,39.672c0,5.337-4.043,9.98-9.369,10.309c-4.831,0.298-8.991-2.856-10.244-7.227
				C22.261,42.316,21.882,42,21.426,42h0c-0.658,0-1.14,0.633-0.96,1.266c1.511,5.335,6.617,9.174,12.53,8.694
				C39.279,51.449,44,45.965,44,39.662L44,37c0-0.552-0.448-1-1-1l0,0c-0.552,0-1,0.448-1,1L42,39.672z"/>
		</g>
		<g>
			<path fill="#64C8F0" d="M44,30v-5.649c0-6.245-4.626-11.712-10.844-12.297C26.021,11.384,20,17.002,20,24v7c0,0.552,0.448,1,1,1
				s1-0.448,1-1v-7c0-5.741,4.863-10.367,10.686-9.977C37.994,14.379,42,19.033,42,24.353L42,30c0,2.209,1.791,4,4,4h5
				c0.552,0,1-0.448,1-1l0,0c0-0.552-0.448-1-1-1h-5C44.895,32,44,31.105,44,30z"/>
		</g>
		<g>
			<path fill="#64C8F0" d="M52,24.479c0-10.713-8.227-19.891-18.925-20.451C21.89,3.443,12.578,12.053,12.026,22.973
				C11.997,23.535,12.464,24,13.027,24c0.542,0,0.97-0.432,0.999-0.973c0.525-9.81,8.942-17.559,18.999-16.998
				C42.632,6.564,50,14.821,50,24.442V29c0,0.552,0.448,1,1,1l0,0c0.552,0,1-0.448,1-1L52,24.479z"/>
		</g>
		<g>
			<path fill="#64C8F0" d="M28,36c0,1.105-0.895,2-2,2H13c-0.552,0-1,0.448-1,1c0,0.552,0.448,1,1,1h13c0.732,0,1.41-0.211,2-0.555
				v0.377c0,2.088,1.523,3.956,3.601,4.158C33.986,44.212,36,42.337,36,40v-1c0-0.552-0.448-1-1-1s-1,0.448-1,1v1
				c0,1.214-1.087,2.179-2.339,1.972C30.678,41.81,30,40.884,30,39.887L30,36v-3c0-0.552-0.448-1-1-1h0c-0.552,0-1,0.448-1,1V36z"/>
		</g>
		<g>
			<path fill="#64C8F0" d="M35,36c0.552,0,1-0.448,1-1V24c0-2.337-2.014-4.212-4.399-3.981C29.523,20.222,28,22.09,28,24.178L28,29
				c0,0.552,0.448,1,1,1h0c0.552,0,1-0.448,1-1l0-4.887c0-0.997,0.678-1.923,1.661-2.085C32.913,21.821,34,22.786,34,24v11
				C34,35.552,34.448,36,35,36z"/>
		</g>
		<g>
			<path fill="#64C8F0" d="M16,24.005C16,25.103,15.042,26,13.944,26H13c-0.552,0-1,0.448-1,1c0,0.552,0.448,1,1,1h1.461
				c1.965,0,3.543-1.599,3.539-3.564c-0.01-4.625,2.162-8.886,5.607-11.562C23.852,12.685,24,12.399,24,12.089v-0.053
				c0-0.814-0.934-1.306-1.585-0.817C18.525,14.139,15.998,18.777,16,24.005z"/>
		</g>
		<g>
			<path fill="#64C8F0" d="M33.757,8.095c-2.512-0.272-4.916,0.055-7.106,0.838C26.256,9.074,26,9.459,26,9.878v0
				c0,0.698,0.692,1.17,1.347,0.931c0.968-0.353,1.988-0.601,3.054-0.72C38.833,9.15,46,15.754,46,24v5c0,0.552,0.448,1,1,1
				s1-0.448,1-1v-4.573C48,16.188,41.947,8.983,33.757,8.095z"/>
		</g>
		<g>
			<path fill="#64C8F0" d="M14.234,42.853C14.156,42.366,13.751,42,13.258,42H13.23c-0.616,0-1.076,0.556-0.979,1.165
				c1.12,7.046,5.926,12.849,12.374,15.41C25.283,58.836,26,58.356,26,57.648l0,0c0-0.41-0.256-0.768-0.637-0.92
				C19.568,54.42,15.246,49.182,14.234,42.853z"/>
		</g>
		<g>
			<path fill="#64C8F0" d="M32.46,57.994c-1.132,0.028-2.238-0.057-3.314-0.234C28.544,57.661,28,58.128,28,58.738v0.008
				c0,0.482,0.343,0.906,0.819,0.984c1.159,0.191,2.349,0.289,3.567,0.266c0.955-0.018,1.889-0.114,2.804-0.269
				c0.472-0.08,0.811-0.5,0.811-0.979v-0.002c0-0.61-0.543-1.077-1.145-0.978C34.073,57.897,33.274,57.974,32.46,57.994z"/>
		</g>
		<g>
			<path fill="#64C8F0" d="M48,39.544V37c0-0.552-0.448-1-1-1s-1,0.448-1,1v2.592c0,1.837-0.345,3.613-0.974,5.255
				c0.759-0.74,1.636-1.354,2.597-1.825C47.863,41.895,48,40.733,48,39.544z"/>
		</g>
		<g>
			<path fill="#64C8F0" d="M42.404,49.21c-2.326,2.678-5.613,4.482-9.372,4.753c-7.204,0.52-13.355-4.451-14.73-11.145
				C18.206,42.348,17.81,42,17.33,42H17.31c-0.633,0-1.1,0.585-0.973,1.205c1.521,7.446,8.217,13.029,16.159,12.788
				c3.628-0.11,6.912-1.48,9.521-3.656C42.013,52.224,42,52.114,42,52C42,51.031,42.146,50.097,42.404,49.21z"/>
		</g>
		<g>
			<path fill="#64C8F0" d="M38.628,56.694C38.252,56.847,38,57.203,38,57.609v0.01c0,0.71,0.723,1.193,1.38,0.924
				c1.315-0.538,2.555-1.221,3.714-2.018c-0.309-0.606-0.556-1.247-0.737-1.917C41.207,55.443,39.96,56.15,38.628,56.694z"/>
		</g>
		<g>
			<path fill="#64C8F0" d="M52,39.524V37c0-0.552-0.448-1-1-1s-1,0.448-1,1v2.567c0,0.91-0.071,1.805-0.198,2.684
				c0.657-0.148,1.337-0.232,2.035-0.243C51.935,41.191,52,40.364,52,39.524z"/>
		</g>
		<g>
			<circle fill="#3CC8B4" cx="52" cy="52" r="8"/>
		</g>
		<g>
			<path fill="#1EAA96" d="M45.983,52c0-4.082,3.059-7.443,7.009-7.932C52.666,44.027,52.336,44,52,44c-4.418,0-8,3.582-8,8
				s3.582,8,8,8c0.336,0,0.666-0.027,0.991-0.068C49.042,59.443,45.983,56.082,45.983,52z"/>
		</g>
		<g>
			<polygon fill="#F0F0F0" points="57,50 51,56 47,52 49,50 51,52 55,48 			"/>
		</g>
	</g>
</g>
</svg>
