<?xml version="1.0" encoding="utf-8"?>
<!-- Generator: Adobe Illustrator 24.0.0, SVG Export Plug-In . SVG Version: 6.00 Build 0)  -->
<svg version="1.1" xmlns="http://www.w3.org/2000/svg" xmlns:xlink="http://www.w3.org/1999/xlink" x="0px" y="0px"
	 viewBox="0 0 64 64" enable-background="new 0 0 64 64" xml:space="preserve">
<g id="Captions">
</g>
<g id="Icons">
	<g>
		<g>
			<path fill="#FAB400" d="M45.863,19.879C43.517,18.047,42,15.2,42,12c0-1.12,0.193-2.194,0.535-3.201C39.968,5.864,36.206,4,32,4
				c-7.732,0-14,6.268-14,14c0,6.341,4.219,11.691,10,13.413V56l4,4l4-4v-4h2v-2h-2v-2h2v-2h-2v-2h2v-2h-2V31.413
				C41.199,29.864,45.124,25.378,45.863,19.879z M32,16c-2.209,0-4-1.791-4-4c0-2.209,1.791-4,4-4s4,1.791,4,4
				C36,14.209,34.209,16,32,16z"/>
		</g>
		<g>
			<path fill="#DC9600" d="M32,56V31.413C26.219,29.691,22,24.341,22,18c0-7.051,5.218-12.868,12-13.841C33.345,4.065,32.681,4,32,4
				c-7.732,0-14,6.268-14,14c0,6.341,4.219,11.691,10,13.413V56l4,4l2-2L32,56z"/>
		</g>
		<g>
			<circle fill="#3CC8B4" cx="52" cy="12" r="8"/>
		</g>
		<g>
			<path fill="#1EAA96" d="M45.983,12c0-4.082,3.059-7.443,7.009-7.932C52.666,4.027,52.336,4,52,4c-4.418,0-8,3.582-8,8
				s3.582,8,8,8c0.336,0,0.666-0.027,0.991-0.068C49.042,19.443,45.983,16.082,45.983,12z"/>
		</g>
		<g>
			<polygon fill="#F0F0F0" points="57,10 51,16 47,12 49,10 51,12 55,8 			"/>
		</g>
	</g>
</g>
</svg>
