<svg id="Capa_1" enable-background="new 0 0 512 512" height="512" viewBox="0 0 512 512" width="512" xmlns="http://www.w3.org/2000/svg"><g><path d="m467 0h-211-211c-24.814 0-45 20.186-45 45v422c0 24.814 20.186 45 45 45h211 211c24.814 0 45-20.186 45-45v-422c0-24.814-20.186-45-45-45z" fill="#ff6c6c"/><path d="m512 467v-422c0-24.814-20.186-45-45-45h-211v512h211c24.814 0 45-20.186 45-45z" fill="#f03800"/><g><circle cx="435.999" cy="75.999" fill="#29376d" r="15"/></g><g><circle cx="75.999" cy="75.999" fill="#47568c" r="15"/></g><g><circle cx="75.999" cy="435.999" fill="#47568c" r="15"/></g><g><circle cx="435.999" cy="435.999" fill="#29376d" r="15"/></g><path d="m256 76c-16.538 0-30 13.462-30 30v150c0 16.538 13.462 30 30 30s30-13.462 30-30v-150c0-16.538-13.462-30-30-30z" fill="#edf5ff"/><path d="m286 256v-150c0-16.538-13.462-30-30-30v210c16.538 0 30-13.462 30-30z" fill="#d5e8fe"/><path d="m385.624 131.093c-12.261-12.627-33.53-11.133-44.604 1.963-9.113 10.818-10.031 27.642 1.934 40.254 21.313 22.382 33.046 51.753 33.046 82.69 0 66.196-53.245 119.654-119.984 119.907-.005 0-.011-.002-.016-.002-65.475.24-120.284-51.216-119.929-120.205.157-30.599 11.655-60.004 32.99-82.405 11.929-12.501 11.087-29.432 1.992-40.137-11.133-13.184-33.003-14.37-45.337-1.362-32.065 33.618-49.716 77.725-49.716 124.204 0 99.653 80.711 180 180 180 98.701 0 179.852-78.272 180.033-180.002.084-46.556-17.408-90.639-50.409-124.905z" fill="#edf5ff"/><path d="m436.033 255.998c.084-46.556-17.408-90.639-50.409-124.905-12.261-12.627-33.53-11.133-44.604 1.963-9.113 10.818-10.031 27.642 1.934 40.254 21.313 22.382 33.046 51.753 33.046 82.69 0 66.196-53.245 119.654-119.984 119.907-.005 0-.011-.002-.016-.002v60.095c98.701 0 179.852-78.272 180.033-180.002z" fill="#d5e8fe"/></g></svg>