<svg id="Capa_1" enable-background="new 0 0 512 512" height="512" viewBox="0 0 512 512" width="512" xmlns="http://www.w3.org/2000/svg"><g><g><g><path d="m269.207 330.786c-37.007-37.007-37.007-97.223 0-134.23 5.952-5.951 12.721-11.108 20.119-15.329l.874-.498-7.85-13.596c-6.532-11.313-9.268-23.898-8.226-36.28h-79.299l-1 1v64.111c0 1.063-.865 1.927-1.927 1.927h-75.501c-1.063 0-1.927-.865-1.927-1.927v-64.111l-1-1h-108.591c-2.694 0-4.879 2.184-4.879 4.879v298.537c0 2.694 2.184 4.879 4.879 4.879h298.537c2.694 0 4.879-2.184 4.879-4.879v-79.872c-14.601-4.491-27.98-12.503-39.088-23.611z" fill="#faea5e"/><path d="m42.753 135.732c0-2.694 2.184-4.879 4.879-4.879h-42.753c-2.694 0-4.879 2.184-4.879 4.879v222.535l42.753 42.752z" fill="#ffd600"/><g><path d="m113.47 130.853v65.111c0 1.617 1.311 2.927 2.927 2.927h75.501c1.617 0 2.927-1.311 2.927-2.927v-65.111z" fill="#fd4755"/></g><g><path d="m145.771 195.964v-65.111h-32.301v65.111c0 1.617 1.311 2.927 2.927 2.927h32.301c-1.617 0-2.927-1.31-2.927-2.927z" fill="#fb2b3a"/></g></g><g><path d="m0 358.267v76.002c0 2.694 2.184 4.879 4.879 4.879h76.002z" fill="#fd4755"/></g><g><path d="m42.753 434.269v-33.249l-42.753-42.753v76.002c0 2.694 2.184 4.879 4.879 4.879h42.753c-2.695 0-4.879-2.184-4.879-4.879z" fill="#fb2b3a"/></g><path d="m194.191 279.423-34.365-39.834c-1.425-1.652-3.498-2.601-5.679-2.601s-4.254.949-5.679 2.601l-34.365 39.834c-2.706 3.136-2.357 7.872.78 10.578 3.136 2.706 7.873 2.356 10.578-.78l21.187-24.558v67.154c0 4.142 3.358 7.5 7.5 7.5s7.5-3.358 7.5-7.5v-67.154l21.187 24.558c1.483 1.72 3.577 2.601 5.682 2.601 1.735 0 3.479-.599 4.896-1.821 3.135-2.706 3.484-7.442.778-10.578z" fill="#c57a44"/><g><path d="m191.414 383.515h-74.532c-4.142 0-7.5-3.358-7.5-7.5s3.358-7.5 7.5-7.5h74.532c4.142 0 7.5 3.358 7.5 7.5s-3.358 7.5-7.5 7.5z" fill="#c57a44"/></g></g><g><path d="m447.992 355.898-35.546-35.546c-2.713 3.639-5.707 7.133-9.009 10.435-3.283 3.283-6.766 6.293-10.418 9.025l35.53 35.53z" fill="#9facba"/><g><path d="m510.422 415.904-21.867 21.867c-2.105 2.105-5.517 2.105-7.621 0l-54.303-54.303c-2.105-2.105-2.105-5.517 0-7.621l21.867-21.867c2.105-2.105 5.517-2.105 7.621 0l54.303 54.303c2.104 2.104 2.104 5.516 0 7.621z" fill="#596c76"/></g><g><path d="m455.991 383.467c-2.104-2.104-2.104-5.517 0-7.621l10.997-10.997-10.869-10.869c-2.105-2.105-5.517-2.105-7.621 0l-21.867 21.867c-2.104 2.104-2.104 5.517 0 7.621l54.303 54.303c2.104 2.105 5.517 2.105 7.621 0l10.869-10.869z" fill="#465a61"/></g><path d="m404.144 195.849c-6.451-6.451-13.603-11.763-21.196-15.992l-43.278 74.96c-.698 1.21-1.95 1.933-3.348 1.933s-2.648-.722-3.347-1.933l-43.279-74.96c-7.593 4.229-14.746 9.541-21.196 15.992-37.457 37.457-37.457 98.187 0 135.644s98.187 37.457 135.644 0 37.457-98.187 0-135.644z" fill="#596c76"/><path d="m381.272 218.722c-4.4-4.4-9.297-8.004-14.503-10.841l-27.099 46.937c-.698 1.21-1.95 1.933-3.348 1.933s-2.648-.722-3.347-1.933l-27.099-46.937c-5.206 2.838-10.103 6.441-14.503 10.841-24.785 24.785-24.785 65.113 0 89.899s65.113 24.785 89.899 0 24.785-65.114 0-89.899z" fill="#99e6fc"/><path d="m316.192 227.749-11.197-19.394c-4.879 2.76-9.469 6.214-13.622 10.367-24.785 24.785-24.785 65.113 0 89.899 16.528 16.528 39.966 22.018 61.1 16.502-10.557-2.755-20.542-8.245-28.799-16.502-21.965-21.966-24.448-56.129-7.482-80.872z" fill="#62dbfb"/><path d="m386.575 213.418c-4.822-4.822-10.227-8.851-16.046-12.051l-7.51 13.008c4.651 2.516 9.023 5.724 12.949 9.65 21.861 21.861 21.861 57.431 0 79.292-21.859 21.86-57.432 21.86-79.291 0-21.861-21.861-21.861-57.431 0-79.292 3.925-3.926 8.298-7.134 12.949-9.65l-7.51-13.008c-5.819 3.2-11.224 7.229-16.046 12.051-13.403 13.404-20.785 31.25-20.785 50.252s7.382 36.849 20.785 50.252c13.404 13.404 31.251 20.786 50.253 20.786s36.849-7.382 50.253-20.786c13.403-13.404 20.785-31.25 20.785-50.252s-7.382-36.848-20.786-50.252z" fill="#465a61"/><g><g><g><g><path d="m340.536 255.318 50.624-87.684c24.372-42.214-6.093-94.982-54.838-94.982-48.745 0-79.21 52.768-54.838 94.982l50.624 87.684c1.874 3.243 6.555 3.243 8.428 0z" fill="#01c0fa"/></g><g><path d="m324.328 167.633c-20.554-35.601-2.106-78.707 33.416-91.34-6.599-2.347-13.786-3.642-21.422-3.642-48.745 0-79.21 52.768-54.838 94.982l50.624 87.684c1.873 3.243 6.554 3.243 8.427 0l17.209-29.806z" fill="#08a9f1"/></g><g><circle cx="336.322" cy="138.493" fill="#fff" r="22.683"/></g><g><path d="m334.294 138.493c0-8.806 5.022-16.435 12.356-20.193-3.098-1.588-6.606-2.489-10.327-2.489-12.527 0-22.683 10.155-22.683 22.682s10.155 22.683 22.683 22.683c3.721 0 7.229-.902 10.327-2.489-7.334-3.759-12.356-11.387-12.356-20.194z" fill="#f2fbff"/></g></g></g></g></g></g></svg>