<svg height="472pt" viewBox="-36 0 472 472.03602" width="472pt" xmlns="http://www.w3.org/2000/svg"><path d="m231.875 134.804688-87.449219-99.105469c-6.179687-6.996094-15.066406-11.003907-24.398437-11.003907-9.335938 0-18.222656 4.007813-24.402344 11.003907l-87.464844 99.105469c-5.246094 5.949218-8.1406248 13.609374-8.1406248 21.542968v251.6875c0 35.347656 28.6523438 64 63.9999998 64h112c35.34375 0 64-28.652344 64-64v-251.6875c0-7.933594-2.898437-15.59375-8.144531-21.542968zm-111.855469 33.230468c-17.675781 0-32-14.324218-32-32 0-17.671875 14.324219-32 32-32 17.671875 0 32 14.328125 32 32 0 17.675782-14.328125 32-32 32zm0 0" fill="#fd0"/><path d="m391.433594 312.027344-125.816406-217.976563c-3.96875-6.863281-10.304688-12.046875-17.824219-14.574219l-92-30.921874 76.105469 86.25c5.238281 5.953124 8.125 13.613281 8.121093 21.542968v251.6875c-.003906 20.082032-9.449219 38.988282-25.503906 51.050782 18.367187 7.664062 39.257813 6.320312 56.496094-3.632813l97-56c30.609375-17.675781 41.09375-56.816406 23.421875-87.425781zm0 0" fill="#33b1a2"/><path d="m291.066406 138.179688-8.648437-14.992188c-11.566407 15.414062-25.953125 28.492188-42.398438 38.535156v18.648438c.550781-.3125 1.101563-.582032 1.65625-.894532 18.832031-10.652343 35.570313-24.644531 49.390625-41.296874zm0 0" fill="#2e9989"/><path d="m240.019531 152.035156h-.394531c.226562 1.429688.359375 2.867188.394531 4.3125v251.6875c-.003906 20.082032-9.449219 38.988282-25.503906 51.050782 18.367187 7.664062 39.257813 6.320312 56.496094-3.632813l10.496093-6.066406zm0 0" fill="#2e9989"/><path d="m231.875 134.804688-87.449219-99.105469c-6.179687-6.996094-15.066406-11.003907-24.398437-11.003907-9.335938 0-18.222656 4.007813-24.402344 11.003907l-33.328125 37.769531c83.242187 10.425781 145.707031 81.1875 145.722656 165.078125v224.855469c19.796875-11.40625 31.996094-32.515625 32-55.367188v-251.6875c0-7.933594-2.898437-15.59375-8.144531-21.542968zm0 0" fill="#ffee80"/><path d="m232.019531 432.035156c-106.039062 0-192-85.960937-192-192v-141.335937l-31.859375 36.105469c-5.246094 5.949218-8.1406248 13.609374-8.1406248 21.542968v251.6875c0 35.347656 28.6523438 64 63.9999998 64h112c26.066407-.007812 49.527344-15.832031 59.300781-40zm0 0" fill="#ffac0d"/><g fill="#fd0"><path d="m272.019531 326.46875c-3.621093 0-6.792969-2.433594-7.730469-5.929688-.933593-3.496093.59375-7.1875 3.730469-9l55.421875-32c3.824219-2.171874 8.683594-.851562 10.882813 2.957032s.910156 8.675781-2.882813 10.898437l-55.421875 32c-1.21875.703125-2.597656 1.074219-4 1.074219zm0 0"/><path d="m282.171875 376.035156c-3.621094 0-6.792969-2.429687-7.730469-5.929687-.9375-3.496094.59375-7.1875 3.730469-8.996094l69.277344-40c3.824219-2.175781 8.683593-.855469 10.882812 2.953125s.910157 8.675781-2.882812 10.902344l-69.277344 40c-1.21875.703125-2.597656 1.070312-4 1.070312zm0 0"/><path d="m279.738281 275.828125c-3.621093 0-6.789062-2.433594-7.726562-5.929687-.9375-3.496094.589843-7.1875 3.726562-9l27.710938-16c3.824219-2.171876 8.683593-.851563 10.882812 2.957031 2.199219 3.808593.910157 8.675781-2.882812 10.902343l-27.710938 16c-1.214843.699219-2.597656 1.070313-4 1.070313zm0 0"/></g><path d="m150.546875 175.035156c-7.351563-1.015625-14.257813-4.121094-19.898437-8.949218-6.058594 2.324218-12.714844 2.578124-18.933594.726562.351562.703125.566406 1.488281.96875 2.167969 7.804687 12.21875 20.726562 20.242187 35.140625 21.824219 5.023437.847656 10.109375 1.265624 15.203125 1.246093 12.355468-.171875 24.628906-2.054687 36.46875-5.597656-1.6875-5.125-3.621094-10.140625-5.789063-15.042969-13.960937 4.285156-28.679687 5.523438-43.160156 3.625zm0 0" fill="#ffac0d"/><path d="m239.53125 150.964844c-1.9375 1.214844-3.855469 2.398437-5.855469 3.589844-2.617187 1.511718-5.242187 2.90625-7.867187 4.257812-10.234375 5.289062-20.988282 9.507812-32.085938 12.589844 2.171875 4.902344 4.101563 9.917968 5.792969 15.042968 11.609375-3.363281 22.863281-7.855468 33.597656-13.410156 2.296875-1.183594 4.59375-2.398437 6.878907-3.726562v-12.960938c-.003907-1.804687-.160157-3.605468-.460938-5.382812zm0 0" fill="#fd0"/><path d="m120.019531 312.035156c-8.839843 0-16-7.164062-16-16 0-8.835937 7.160157-16 16-16 8.835938 0 16 7.164063 16 16 0 4.417969 3.582031 8 8 8s8-3.582031 8-8c-.054687-14.546875-9.917969-27.226562-24-30.863281v-9.136719c0-4.417968-3.582031-8-8-8s-8 3.582032-8 8v9.136719c-15.585937 4.011719-25.753906 18.996094-23.722656 34.960937 2.03125 15.964844 15.628906 27.921876 31.722656 27.902344 8.835938 0 16 7.164063 16 16 0 8.835938-7.164062 16-16 16-8.839843 0-16-7.164062-16-16 0-4.417968-3.582031-8-8-8s-8 3.582032-8 8c.054688 14.546875 9.914063 27.226563 24 30.863282v9.136718c0 4.417969 3.582031 8 8 8s8-3.582031 8-8v-9.136718c15.585938-4.011719 25.75-18.992188 23.71875-34.957032s-15.625-27.925781-31.71875-27.90625zm0 0" fill="#ee1442"/><path d="m144.019531 216.035156h-48c-4.417969 0-8-3.582031-8-8 0-4.417968 3.582031-8 8-8h48c4.417969 0 8 3.582032 8 8 0 4.417969-3.582031 8-8 8zm0 0" fill="#33b1a2"/><path d="m144.019531 440.035156h-48c-4.417969 0-8-3.582031-8-8 0-4.417968 3.582031-8 8-8h48c4.417969 0 8 3.582032 8 8 0 4.417969-3.582031 8-8 8zm0 0" fill="#2e9989"/><path d="m306.675781 23.140625c-17.953125-31.074219-74.609375-30.824219-129 .574219-9.5 5.472656-18.523437 11.734375-26.976562 18.714844-.066407.054687-.097657.140624-.160157.199218l5.230469 5.925782 9.222657 3.097656c6.5625-5.160156 13.472656-9.859375 20.683593-14.0625 45.0625-26.035156 94.132813-28.976563 107.132813-6.402344 5.945312 10.289062 3.648437 24.960938-6.453125 41.320312-13.425781 20.082032-31.5 36.632813-52.679688 48.25-2.617187 1.511719-5.242187 2.910157-7.867187 4.261719-26.613282 13.710938-54.742188 19.777344-75.261719 16.222657-9.660156-.980469-18.417969-6.109376-24-14.054688-3.359375-6.484375-4.121094-14.003906-2.136719-21.03125.054688-.53125.054688-1.066406 0-1.601562-1.449218-.277344-2.917968-.449219-4.390625-.519532-4.035156.015625-8.027343.796875-11.769531 2.304688-1.878906 9.824218-.316406 19.996094 4.433594 28.800781 7.804687 12.21875 20.726562 20.242187 35.140625 21.824219 5.023437.84375 10.109375 1.257812 15.203125 1.238281 24.527344-.808594 48.535156-7.320313 70.109375-19.015625 2.847656-1.464844 5.699219-2.992188 8.539062-4.625 23.472657-12.941406 43.472657-31.367188 58.292969-53.703125 13.335938-21.589844 15.722656-42.09375 6.707031-57.71875zm0 0" fill="#ee1442"/></svg>