<?xml version="1.0"?>
<svg xmlns="http://www.w3.org/2000/svg" xmlns:xlink="http://www.w3.org/1999/xlink" xmlns:svgjs="http://svgjs.com/svgjs" version="1.1" width="512" height="512" x="0" y="0" viewBox="0 0 512 512" style="enable-background:new 0 0 512 512" xml:space="preserve" class=""><g><path xmlns="http://www.w3.org/2000/svg" d="m328 40h64v128h-64z" fill="#f7cc38" data-original="#f7cc38" style="" class=""/><path xmlns="http://www.w3.org/2000/svg" d="m208 472a24 24 0 0 0 0-48c-.52 0-1 .12-1.517.153a23.888 23.888 0 0 0 -38.648-25.788 23.819 23.819 0 0 0 -39.835-16.136 23.819 23.819 0 0 0 -39.835 16.136 23.858 23.858 0 0 0 -38.648 25.788c-.512-.033-1-.153-1.517-.153a24 24 0 0 0 0 48z" fill="#2e9163" data-original="#2e9163" style=""/><path xmlns="http://www.w3.org/2000/svg" d="m464 472a24 24 0 0 0 0-48c-.52 0-1 .12-1.517.153a23.888 23.888 0 0 0 -38.648-25.788 23.819 23.819 0 0 0 -39.835-16.136 23.819 23.819 0 0 0 -39.835 16.136 23.858 23.858 0 0 0 -38.648 25.788c-.512-.033-1-.153-1.517-.153a24 24 0 0 0 0 48z" fill="#2e9163" data-original="#2e9163" style=""/><path xmlns="http://www.w3.org/2000/svg" d="m432 232-176-128-176 128-32-24 208-152 208 152z" fill="#95573a" data-original="#95573a" style="" class=""/><path xmlns="http://www.w3.org/2000/svg" d="m432 472h-352v-240l176-128 176 128z" fill="#f7cc38" data-original="#f7cc38" style="" class=""/><path xmlns="http://www.w3.org/2000/svg" d="m272 280h112v192h-112z" fill="#e9eef2" data-original="#e9eef2" style="" class=""/><path xmlns="http://www.w3.org/2000/svg" d="m128 280h96v112h-96z" fill="#80a1c1" data-original="#dcdee0" style="" class=""/><circle xmlns="http://www.w3.org/2000/svg" cx="304" cy="368" fill="#95573a" r="8" data-original="#95573a" style="" class=""/><path xmlns="http://www.w3.org/2000/svg" d="m320 24h80v32h-80z" fill="#95573a" data-original="#95573a" style="" class=""/><path xmlns="http://www.w3.org/2000/svg" d="m224 280h-104v112h112v-112zm-8 16v32h-32v-32zm-48 0v32h-32v-32zm-32 80v-32h32v32zm48 0v-32h32v32z" fill="#e9eef2" data-original="#e9eef2" style="" class=""/></g></svg>
