<?xml version="1.0"?>
<svg xmlns="http://www.w3.org/2000/svg" xmlns:xlink="http://www.w3.org/1999/xlink" xmlns:svgjs="http://svgjs.com/svgjs" version="1.1" width="512" height="512" x="0" y="0" viewBox="0 0 512.001 512.001" style="enable-background:new 0 0 512 512" xml:space="preserve" class=""><g>
<path xmlns="http://www.w3.org/2000/svg" style="" d="M510.642,186.465c-0.521-4.58-4.518-7.985-9.128-7.985h-19.949  c-4.717-26.671-15.128-51.336-30.057-72.681l14.072-14.072c3.26-3.26,3.677-8.494,0.808-12.1  c-4.946-6.216-10.293-12.217-16.045-17.967c-5.75-5.75-11.751-11.099-17.967-16.045c-3.606-2.869-8.842-2.452-12.1,0.808  l-14.072,14.072c-21.347-14.929-46.01-25.341-72.681-30.057V10.486c0-4.61-3.406-8.606-7.985-9.128  c-7.711-0.876-15.553-1.323-23.494-1.343V0c-0.094,0-0.184,0.008-0.278,0.008S301.581,0,301.487,0v0.016  c-7.941,0.021-15.783,0.467-23.494,1.343c-4.58,0.522-7.985,4.518-7.985,9.128v19.95c-26.671,4.717-51.336,15.128-72.681,30.057  l-14.072-14.072c-3.26-3.26-8.494-3.677-12.1-0.808c-6.216,4.946-12.217,10.295-17.967,16.045s-11.099,11.751-16.045,17.967  c-2.871,3.606-2.452,8.84,0.808,12.1l14.072,14.072c-14.929,21.347-25.341,46.01-30.057,72.681h-19.951  c-4.61,0-8.606,3.406-9.127,7.985c-0.898,7.892-1.359,15.918-1.359,24.05c0,8.132,0.461,16.157,1.359,24.049  c0.521,4.58,4.518,7.985,9.127,7.985h19.95c4.717,26.671,15.128,51.336,30.057,72.681l-14.072,14.072  c-3.26,3.26-3.677,8.494-0.808,12.1c4.946,6.216,10.295,12.216,16.045,17.967c5.75,5.75,11.751,11.099,17.967,16.045  c3.606,2.869,8.84,2.452,12.1-0.808l14.071-14.071c21.347,14.929,46.01,25.341,72.683,30.057v19.95c0,4.608,3.406,8.606,7.985,9.128  c7.711,0.878,15.553,1.323,23.494,1.343v0.016c0.094,0,0.184-0.008,0.278-0.008c0.094,0,0.184,0.008,0.278,0.008v-0.016  c7.941-0.021,15.783-0.467,23.494-1.343c4.58-0.521,7.985-4.518,7.985-9.128v-19.95c26.672-4.717,51.336-15.128,72.683-30.057  l14.071,14.071c3.26,3.26,8.494,3.677,12.1,0.808c6.216-4.946,12.217-10.294,17.967-16.045c5.75-5.75,11.099-11.751,16.045-17.967  c2.871-3.606,2.452-8.84-0.808-12.1l-14.072-14.072c14.929-21.347,25.341-46.01,30.057-72.681h19.95c4.61,0,8.606-3.406,9.128-7.985  c0.898-7.892,1.359-15.918,1.359-24.049C512.001,202.382,511.54,194.356,510.642,186.465z" fill="#c7cfe2" data-original="#c7cfe2" class=""/>
<circle xmlns="http://www.w3.org/2000/svg" style="" cx="301.484" cy="210.515" r="156.147" fill="#afb9d2" data-original="#afb9d2" class=""/>
<path xmlns="http://www.w3.org/2000/svg" style="" d="M292.024,73.54c-65.612,4.398-119.972,56.387-127.009,121.769  c-3.591,33.365,4.805,64.627,21.394,90.062c4.764,7.305,3.928,16.88-2.239,23.047l-30.234,30.234l19.414,19.414l30.234-30.234  c6.167-6.167,15.742-7.003,23.047-2.239c25.435,16.588,56.696,24.985,90.062,21.394c65.382-7.037,117.371-61.396,121.769-127.009  C444.044,136.694,375.307,67.957,292.024,73.54z" fill="#7f8499" data-original="#7f8499" class=""/>
<circle xmlns="http://www.w3.org/2000/svg" style="" cx="301.484" cy="210.515" r="110.383" fill="#f1f4fb" data-original="#f1f4fb" class=""/>
<path xmlns="http://www.w3.org/2000/svg" style="" d="M372.154,200.806c-4.067,0-7.786-2.736-8.849-6.855c-5.837-22.511-23.177-40.133-45.263-45.983  c-4.889-1.296-7.803-6.306-6.507-11.195c1.305-4.885,6.319-7.772,11.19-6.503c28.469,7.549,50.805,30.189,58.296,59.086  c1.269,4.893-1.672,9.89-6.56,11.155C373.691,200.712,372.913,200.806,372.154,200.806z" fill="#ffffff" data-original="#ffffff"/>
<path xmlns="http://www.w3.org/2000/svg" style="" d="M332.524,248.877c-34.303-7.631-61.756-35.079-69.396-69.381c-2.837-12.741-2.915-25.095-0.81-36.694  c1.289-7.103-6.44-12.544-12.417-8.496c-27.455,18.593-44.351,51.577-39.742,88.162c5.156,40.933,38.438,74.213,79.37,79.371  c36.586,4.61,69.571-12.285,88.165-39.74c4.048-5.977-1.395-13.706-8.497-12.417C357.605,251.786,345.259,251.71,332.524,248.877z" fill="#e4eaf8" data-original="#e4eaf8" class=""/>
<path xmlns="http://www.w3.org/2000/svg" style="" d="M198.681,359.593L55.858,502.417c-12.778,12.779-33.495,12.779-46.273,0l0,0  c-12.778-12.779-12.778-33.495,0-46.273l142.823-142.823c3.574-3.574,9.369-3.574,12.944,0l33.329,33.329  C202.256,350.224,202.256,356.019,198.681,359.593z" fill="#fff123" data-original="#9b735a" class=""/>
<path xmlns="http://www.w3.org/2000/svg" style="" d="M37.042,511.57c-12.777-12.778-12.777-33.496,0-46.273l140.142-140.142l-11.833-11.833  c-3.574-3.574-9.369-3.574-12.944,0L9.584,456.144c-12.777,12.777-12.777,33.495,0,46.273c7.498,7.498,17.72,10.47,27.477,9.168  C37.056,511.579,37.048,511.574,37.042,511.57z" fill="#ebe701" data-original="#8c5f50" class=""/>
<g xmlns="http://www.w3.org/2000/svg">
</g>
<g xmlns="http://www.w3.org/2000/svg">
</g>
<g xmlns="http://www.w3.org/2000/svg">
</g>
<g xmlns="http://www.w3.org/2000/svg">
</g>
<g xmlns="http://www.w3.org/2000/svg">
</g>
<g xmlns="http://www.w3.org/2000/svg">
</g>
<g xmlns="http://www.w3.org/2000/svg">
</g>
<g xmlns="http://www.w3.org/2000/svg">
</g>
<g xmlns="http://www.w3.org/2000/svg">
</g>
<g xmlns="http://www.w3.org/2000/svg">
</g>
<g xmlns="http://www.w3.org/2000/svg">
</g>
<g xmlns="http://www.w3.org/2000/svg">
</g>
<g xmlns="http://www.w3.org/2000/svg">
</g>
<g xmlns="http://www.w3.org/2000/svg">
</g>
<g xmlns="http://www.w3.org/2000/svg">
</g>
</g></svg>
