<svg height="512" viewBox="0 0 64 64" width="512" xmlns="http://www.w3.org/2000/svg"><g id="Boxes"><path d="m4 37h28v24h-28z" fill="#b38b63"/><path d="m32 37h28v24h-28z" fill="#cba57c"/><path d="m18 13h28v24h-28z" fill="#cba57c"/><path d="m44 13v14a6 6 0 0 1 -6 6h-20v4h28v-24z" fill="#c49a6c"/><path d="m30 37v14a6 6 0 0 1 -6 6h-20v4h28v-24z" fill="#a97c50"/><path d="m58 37v14a6 6 0 0 1 -6 6h-20v4h28v-24z" fill="#c49a6c"/><g fill="#a97c50"><path d="m60 37-4-6h-8l1 6z"/><path d="m30 7h-8l-4 6h11z"/><path d="m16 31h-8l-4 6h11z"/></g><path d="m49 37-1-6h-2v6z" fill="#ffa733"/><path d="m46 13-4-6h-8l1 6z" fill="#a97c50"/><path d="m18 37v-6h-2l-1 6z" fill="#ee8700"/><path d="m46 45 3 2v-10h-3-3v10z" fill="#ffb655"/><path d="m15 37v10l3-2 3 2v-10h-3z" fill="#ff9811"/><path d="m29 23 3-2 3 2v-10h-6z" fill="#ffb655"/><path d="m35 13-1-6h-4l-1 6z" fill="#ffa733"/></g></svg>