<svg height="512" viewBox="0 0 64 64" width="512" xmlns="http://www.w3.org/2000/svg"><g id="money_&#xB7;_ecommerce_&#xB7;_shopping_&#xB7;_buy_&#xB7;_bag" data-name="money &#xB7; ecommerce &#xB7; shopping &#xB7; buy &#xB7; bag"><path d="m55 15v34a6 6 0 0 1 -6 6h-28a6 6 0 0 1 -6-6v-34z" fill="#ffcd00"/><path d="m51 15v18a20 20 0 0 1 -20 20h-14c-.163 0-.323-.012-.483-.024a5.983 5.983 0 0 0 4.483 2.024h28a6 6 0 0 0 6-6v-34z" fill="#ebbf00"/><path d="m7 33h40v24h-40z" fill="#4e901e"/><path d="m45 33h2v24h-2z" fill="#447e1a"/><path d="m3 37h40v24h-40z" fill="#5eac24"/><path d="m41 37h2v24h-2z" fill="#529720"/><path d="m55 49a6 6 0 0 1 -6 6h6a6 6 0 0 0 6-6v-34h-6z" fill="#a97c50"/><path d="m58 15v34a6 6 0 0 1 -6 6h3a6 6 0 0 0 6-6v-34z" fill="#8b5e3c"/><circle cx="25" cy="22" fill="#ed1c24" r="3"/><circle cx="45" cy="22" fill="#ed1c24" r="3"/><g fill="#91dc5a"><path d="m11 37h-8v8a8 8 0 0 0 8-8z"/><path d="m3 53v8h8a8 8 0 0 0 -8-8z"/><path d="m35 61h8v-8a8 8 0 0 0 -8 8z"/></g><path d="m41 53.262v7.738h2v-8a7.992 7.992 0 0 0 -2 .262z" fill="#7fc14f"/><path d="m43 45v-8h-8a8 8 0 0 0 8 8z" fill="#91dc5a"/><path d="m41 37v7.738a7.992 7.992 0 0 0 2 .262v-8z" fill="#7fc14f"/><path d="m24 52h-2a1 1 0 0 1 -1-1 1 1 0 0 0 -2 0 3 3 0 0 0 3 3v1a1 1 0 0 0 2 0v-1a3 3 0 0 0 0-6h-2a1 1 0 0 1 0-2h2a1 1 0 0 1 1 1 1 1 0 0 0 2 0 3 3 0 0 0 -3-3v-1a1 1 0 0 0 -2 0v1a3 3 0 0 0 0 6h2a1 1 0 0 1 0 2z" fill="#f1f2f2"/><path d="m32 50h4a1 1 0 0 0 0-2h-4a1 1 0 0 0 0 2z" fill="#f1f2f2"/><path d="m56 15h-2v-2a9 9 0 0 0 -18 0v2h-2v-2a11 11 0 0 1 22 0z" fill="#006df0"/><path d="m45 23a1 1 0 0 1 -1-1v-9a9 9 0 0 0 -18 0v9a1 1 0 0 1 -2 0v-9a11 11 0 0 1 22 0v9a1 1 0 0 1 -1 1z" fill="#005ece"/><path d="m9 49a1 1 0 0 0 1 1h4a1 1 0 0 0 0-2h-4a1 1 0 0 0 -1 1z" fill="#f1f2f2"/></g></svg>